<svg xmlns="http://www.w3.org/2000/svg" width="1200" height="900" viewBox="0 0 1200 900" fill="none" role="img" aria-labelledby="title desc">
  <title id="title">Website prototype mockup placeholder</title>
  <desc id="desc">Replace this file with your website mockup image</desc>
  <rect width="1200" height="900" rx="18" fill="#F3F2EF"/>
  <rect x="48" y="48" width="1104" height="804" rx="12" fill="#FFFFFF" stroke="rgba(26,29,36,0.12)"/>
  <rect x="48" y="48" width="1104" height="56" rx="12" fill="#FAF9F7"/>
  <rect x="48" y="92" width="1104" height="12" fill="#FAF9F7"/>
  <circle cx="84" cy="76" r="6" fill="#D4CFC6"/>
  <circle cx="106" cy="76" r="6" fill="#D4CFC6"/>
  <circle cx="128" cy="76" r="6" fill="#D4CFC6"/>
  <rect x="168" y="66" width="420" height="20" rx="6" fill="#EBEAE6"/>
  <rect x="96" y="160" width="280" height="18" rx="4" fill="#1A1D24"/>
  <rect x="96" y="198" width="480" height="12" rx="3" fill="#5C6370" opacity="0.45"/>
  <rect x="96" y="222" width="400" height="12" rx="3" fill="#5C6370" opacity="0.35"/>
  <rect x="96" y="262" width="160" height="40" rx="6" fill="#1A2332"/>
  <rect x="96" y="298" width="160" height="4" fill="#8F6F1A"/>
  <rect x="640" y="148" width="416" height="520" rx="12" fill="#EBEAE6"/>
  <rect x="672" y="188" width="352" height="16" rx="4" fill="#FFFFFF" opacity="0.7"/>
  <rect x="672" y="224" width="280" height="12" rx="3" fill="#FFFFFF" opacity="0.55"/>
  <rect x="672" y="252" width="320" height="12" rx="3" fill="#FFFFFF" opacity="0.45"/>
  <rect x="672" y="300" width="352" height="140" rx="10" fill="#FFFFFF" opacity="0.65"/>
  <rect x="672" y="464" width="352" height="140" rx="10" fill="#FFFFFF" opacity="0.55"/>
  <text x="600" y="760" text-anchor="middle" fill="#8B919A" font-family="DM Sans, system-ui, sans-serif" font-size="18" font-weight="500">Replace with website mockup</text>
</svg>
